<svg width="27" height="20" viewBox="0 0 27 20" fill="none" xmlns="http://www.w3.org/2000/svg">
<path d="M26.6667 2.36764C25.6868 2.76923 24.6319 3.04081 23.5253 3.16215C24.6554 2.5381 25.5225 1.54857 25.931 0.369808C24.8729 0.947635 23.7037 1.368 22.4547 1.59335C21.4592 0.612495 20.0364 0 18.4618 0C15.4425 0 12.9929 2.26074 12.9929 5.04875C12.9929 5.44457 13.0399 5.82882 13.1338 6.19863C8.5868 5.98772 4.55636 3.97978 1.85635 0.921633C1.38522 1.66992 1.116 2.5381 1.116 3.46262C1.116 5.21343 2.08174 6.75912 3.54992 7.66486C2.65461 7.6403 1.80939 7.41062 1.07061 7.03503V7.09715C1.07061 9.54424 2.9567 11.5854 5.46106 12.0477C5.00245 12.1661 4.51879 12.2254 4.01949 12.2254C3.66731 12.2254 3.32296 12.195 2.98957 12.1358C3.68609 14.1408 5.70523 15.6013 8.10002 15.6403C6.22801 16.9953 3.86766 17.8028 1.30539 17.8028C0.864002 17.8028 0.427305 17.7797 0 17.7335C2.4214 19.1636 5.29827 20 8.38645 20C18.4508 20 23.9526 12.3077 23.9526 5.63525C23.9526 5.41567 23.9479 5.1961 23.9385 4.98086C25.0075 4.26869 25.9357 3.38028 26.6667 2.36764Z" fill="#E0E0E0"/>
</svg>
