<svg width="27" height="21" viewBox="0 0 27 21" fill="none" xmlns="http://www.w3.org/2000/svg">
<path d="M26.6532 4.85527C26.5372 7.22196 24.7216 10.4572 21.2188 14.5624C17.5937 18.8551 14.5222 21 12.0119 21C10.4597 21 9.14417 19.695 8.07014 17.0765C7.35046 14.674 6.63548 12.2716 5.91737 9.87626C5.11772 7.2563 4.26163 5.94703 3.34596 5.94703C3.14684 5.94703 2.45224 6.32908 1.25434 7.09461L0 5.61936C1.31393 4.56766 2.60904 3.51166 3.8869 2.45852C5.63671 1.07628 6.9522 0.350823 7.83024 0.274986C9.89991 0.0918324 11.1762 1.38393 11.6576 4.14698C12.1703 7.13038 12.5309 8.98482 12.73 9.71171C13.329 12.1843 13.9844 13.4177 14.7025 13.4177C15.2591 13.4177 16.0964 12.6193 17.2127 11.021C18.3291 9.41981 18.9234 8.20355 19.0049 7.36505C19.1648 5.98281 18.5674 5.29598 17.2127 5.29598C16.5746 5.29598 15.9161 5.41904 15.2403 5.6766C16.5573 1.78601 19.066 -0.105631 22.7726 0.00454819C25.5181 0.0746616 26.8147 1.69443 26.6532 4.85527Z" fill="#E0E0E0"/>
</svg>
