<svg width="27" height="17" viewBox="0 0 27 17" fill="none" xmlns="http://www.w3.org/2000/svg">
<path fill-rule="evenodd" clip-rule="evenodd" d="M25.34 1.26818C26.1392 2.0016 26.4 3.66708 26.4 3.66708C26.4 3.66708 26.6667 5.62336 26.6667 7.57889V9.4128C26.6667 11.3691 26.4 13.3246 26.4 13.3246C26.4 13.3246 26.1392 14.9901 25.34 15.7235C24.4263 16.5911 23.4132 16.6808 22.8406 16.7314C22.7776 16.737 22.7199 16.7421 22.6683 16.7477C18.9367 16.9924 13.3333 17 13.3333 17C13.3333 17 6.4 16.9426 4.26667 16.7568C4.16559 16.7397 4.04306 16.7264 3.90431 16.7113C3.22855 16.6378 2.16792 16.5225 1.32583 15.7235C0.526667 14.9901 0.266667 13.3246 0.266667 13.3246C0.266667 13.3246 0 11.3691 0 9.4128V7.57889C0 5.62336 0.266667 3.66708 0.266667 3.66708C0.266667 3.66708 0.526667 2.0016 1.32583 1.26818C2.24155 0.399349 3.25562 0.310675 3.82831 0.260597C3.8904 0.255167 3.94731 0.250191 3.99833 0.244724C7.73 0 13.3275 0 13.3275 0H13.3392C13.3392 0 18.9367 0 22.6683 0.244724C22.7194 0.250199 22.7763 0.255182 22.8384 0.260621C23.4107 0.310704 24.4252 0.39949 25.34 1.26818ZM10.5792 4.84387L10.58 11.635L17.7842 8.25112L10.5792 4.84387Z" fill="#E0E0E0"/>
</svg>
