<svg width="1012" height="336" viewBox="0 0 1012 336" fill="none" xmlns="http://www.w3.org/2000/svg">
<path d="M1181.18 94.5868C1137.71 -10.89 957.926 -50.1055 836.216 -26.4668C695.961 0.787762 666.718 104.943 552.445 95.7193C448.172 87.334 419.24 -3.74827 343.774 -5.17459C274.42 -6.48237 183.998 68.2602 81.2547 375.36" stroke="#F2994A" stroke-width="0.938817" stroke-miterlimit="10"/>
<path d="M92.3125 385.528C193.968 82.7914 283.908 5.88551 353.577 4.55281C405.228 3.62856 435.601 44.8806 483.213 72.7745C507.114 87.2439 534.262 96.099 562.22 98.5449C653.814 106.62 691.667 44.8855 777.519 5.71062C799.385 -4.341 822.548 -11.9141 846.533 -16.8527C968.304 -42.3225 1143.97 -11.9445 1188.95 89.1277" stroke="#F2994A" stroke-width="0.938817" stroke-miterlimit="10"/>
<path d="M103.384 395.655C203.956 97.304 293.359 18.2649 363.208 14.3359C414.554 11.4517 445.525 50.3638 492.769 76.4657C516.972 90.203 544.002 98.7347 571.798 101.41C662.256 110.103 701.398 53.5741 787.832 15.3889C809.786 5.63861 832.857 -1.92562 856.678 -7.18278C978.618 -34.1316 1150.05 -12.9622 1196.55 83.7047" stroke="#F2994A" stroke-width="0.938817" stroke-miterlimit="10"/>
<path d="M114.428 405.751C213.89 111.849 302.821 30.6852 372.916 24.0891C424.005 19.2752 455.486 55.8243 502.427 80.1419C526.885 93.1446 553.78 101.364 581.397 104.275C670.798 113.571 711.045 62.2619 798.165 25.0671C820.205 15.567 843.207 7.98686 866.888 2.42005C988.926 -26.2099 1156.18 -14.0432 1204.19 78.2178" stroke="#F2994A" stroke-width="0.938817" stroke-miterlimit="10"/>
<path d="M125.498 415.936C223.861 126.368 312.25 43.1325 382.649 33.8586C433.427 27.1447 465.517 61.3122 512.121 83.7926C536.851 96.0666 563.658 103.979 591.137 107.115C679.481 117.015 720.897 70.9327 808.739 34.7027C830.83 25.5135 853.717 17.9517 877.197 12.0845C999.353 -18.2298 1162.43 -15.0471 1211.98 72.8034" stroke="#F2994A" stroke-width="0.938817" stroke-miterlimit="10"/>
<path d="M136.482 426.101C233.817 140.898 321.285 53.7617 392.382 43.6174C443.117 36.3242 475.518 66.6768 521.782 87.4769C546.768 98.9952 573.485 106.6 600.819 109.973C688.107 120.475 730.651 79.6291 819.079 44.4086C841.227 35.4775 864.027 27.9086 887.339 21.7489C1009.59 -10.3241 1168.5 -16.0689 1219.58 67.3923" stroke="#F2994A" stroke-width="0.938817" stroke-miterlimit="10"/>
<path d="M147.649 436.231C243.799 155.442 331.149 68.1745 402.072 53.2876C452.223 43.0096 485.588 72.1479 531.469 91.1776C556.685 101.939 583.317 109.242 610.507 112.85C696.737 123.956 740.466 88.3157 829.5 54.1013C851.711 45.4508 874.432 37.8863 897.571 31.4378C1019.94 -2.31866 1174.65 -17.1214 1227.26 61.9876" stroke="#F2994A" stroke-width="0.938817" stroke-miterlimit="10"/>
<path d="M158.717 446.381C253.717 169.98 340.555 80.5976 411.835 63.161C461.615 50.9159 495.657 77.4448 541.148 94.8425C566.573 104.836 593.128 111.83 620.177 115.655C705.335 127.386 750.257 96.9884 839.903 63.7203C860.768 56.0031 883.144 48.167 907.78 41.0342C1030.27 5.53464 1180.82 -18.1158 1234.93 56.5478" stroke="#F2994A" stroke-width="0.938817" stroke-miterlimit="10"/>
<path d="M169.79 456.53C263.745 184.523 350.017 93.234 421.545 72.8965C471.017 58.8496 505.755 82.765 550.866 98.4894C576.498 107.708 602.997 114.413 629.92 118.494C714.021 130.828 760.081 105.624 850.382 73.3925C871.402 65.8821 893.728 58.0948 918.084 50.6807C1040.52 13.4904 1186.98 -19.1181 1242.6 51.1176" stroke="#F2994A" stroke-width="0.938817" stroke-miterlimit="10"/>
<path d="M180.881 466.658C273.731 199.056 359.472 105.835 431.3 82.724C480.448 66.8977 515.963 88.107 560.5 102.213C586.308 110.654 612.748 117.078 639.538 121.417C722.602 134.349 769.831 114.373 860.733 83.0512C881.809 75.7658 904.154 67.9753 928.236 60.2986C1050.9 21.2699 1193.12 -20.2288 1250.26 45.6166" stroke="#F2994A" stroke-width="0.938817" stroke-miterlimit="10"/>
<path d="M191.961 476.807C283.7 213.596 368.94 118.478 440.985 92.5127C489.813 74.9265 526.016 93.4067 570.156 105.941C596.13 113.577 622.526 119.709 649.19 124.302C731.176 137.84 779.568 123.072 871.138 92.8437C892.38 85.8026 914.66 78.0049 938.451 70.0882C1061.19 29.2475 1199.24 -21.113 1257.94 40.3156" stroke="#F2994A" stroke-width="0.938817" stroke-miterlimit="10"/>
<path d="M203.045 486.957C293.698 228.154 378.45 131.119 450.772 102.288C499.306 82.9574 536.206 98.6679 579.871 109.644C604.969 115.945 630.629 122.242 658.924 127.178C739.847 141.3 789.411 131.777 881.601 102.533C902.963 95.7247 925.198 87.9163 948.759 79.7489C1071.58 37.0969 1205.48 -22.1268 1265.68 34.9147" stroke="#F2994A" stroke-width="0.938817" stroke-miterlimit="10"/>
<path d="M214.134 497.106C303.715 242.771 387.836 143.827 460.508 112.099C508.742 91.0062 546.391 103.899 589.568 113.358C615.048 118.944 640.692 124.93 668.621 130.069C748.499 144.848 799.193 140.479 892.027 112.236C913.514 105.679 935.723 97.8565 958.949 89.4379C1081.83 44.942 1211.6 -23.1083 1273.31 29.5424" stroke="#F2994A" stroke-width="0.938817" stroke-miterlimit="10"/>
<path d="M225.187 507.263C313.683 257.265 397.449 156.52 470.248 121.917C518.196 99.1183 556.574 109.119 599.274 117.099C625.146 121.928 650.758 127.625 678.246 133C757.071 148.321 808.906 149.24 902.463 121.982C924.086 115.636 946.23 107.807 969.191 99.1638C1092.13 52.7841 1217.76 -24.0862 1280.99 24.174" stroke="#F2994A" stroke-width="0.938817" stroke-miterlimit="10"/>
<path d="M236.344 517.383C323.692 271.814 406.938 169.281 480.009 131.72C527.687 107.195 566.768 114.288 608.956 120.816C635.215 124.87 660.844 130.308 688.025 135.875C765.752 151.804 818.789 157.92 912.889 131.681C935.52 125.126 957.728 117.484 979.426 108.782C1102.41 60.6211 1224 -25.0233 1288.67 18.8012" stroke="#F2994A" stroke-width="0.938817" stroke-miterlimit="10"/>
<path d="M247.451 527.532C333.712 286.386 416.578 181.965 489.696 141.547C537.107 115.314 576.902 119.461 618.686 124.555C645.327 127.815 670.934 133.002 697.733 138.794C774.42 155.32 828.604 166.659 923.282 141.413C945.963 135.147 968.127 127.511 989.637 118.552C1112.66 68.3565 1230.1 -25.9611 1296.35 13.3842" stroke="#F2994A" stroke-width="0.938817" stroke-miterlimit="10"/>
<path d="M258.566 537.682C343.714 300.947 426.258 194.786 499.528 151.357C546.642 123.463 587.152 124.585 628.377 128.295C655.395 130.742 680.993 135.734 707.426 141.728C783.034 158.857 838.399 175.393 933.758 151.141C956.481 145.138 978.6 137.489 999.916 128.26C1122.93 76.2382 1236.27 -26.8736 1304.05 8.13846" stroke="#F2994A" stroke-width="0.938817" stroke-miterlimit="10"/>
<path d="M269.893 547.828C353.938 315.738 435.928 207.787 509.436 161.436C556.334 131.844 597.469 129.94 638.201 132.309C665.663 133.891 691.188 138.696 717.255 144.907C791.78 162.587 848.291 184.367 944.276 161.13C967.032 155.383 989.104 147.723 1010.23 138.244C1133.23 84.3274 1242.46 -27.4512 1311.75 3.15443" stroke="#F2994A" stroke-width="0.938817" stroke-miterlimit="10"/>
<path d="M281.215 557.977C364.033 330.376 445.739 220.805 519.389 171.575C566.042 140.332 607.79 135.37 648.084 136.448C675.862 137.248 701.464 141.8 727.12 148.216C800.582 166.52 858.239 193.457 954.813 171.181C977.601 165.69 999.63 158.02 1020.55 148.291C1143.53 92.4653 1248.79 -27.8888 1319.46 -1.72097" stroke="#F2994A" stroke-width="0.938817" stroke-miterlimit="10"/>
<path d="M292.548 568.127C374.342 345.067 455.581 233.814 529.299 181.586C575.741 148.669 618.072 140.62 657.919 140.373C686.031 140.213 711.632 144.702 736.946 151.349C809.316 170.243 868.121 202.348 965.327 181.121C988.149 175.895 1010.14 168.212 1030.86 158.225C1153.78 100.442 1254.86 -28.5158 1327.15 -6.72133" stroke="#F2994A" stroke-width="0.938817" stroke-miterlimit="10"/>
<path d="M303.901 578.254C384.571 359.741 465.451 246.905 539.169 191.656C585.389 157.109 628.273 145.944 667.686 144.43C696.137 143.33 721.768 147.711 746.682 154.522C818.003 174.017 877.962 211.299 975.764 191.067C998.619 186.086 1020.58 178.389 1041.11 168.163C1163.83 108.293 1260.98 -29.0106 1334.8 -11.6457" stroke="#F2994A" stroke-width="0.938817" stroke-miterlimit="10"/>
<path d="M315.222 588.408C444.313 241.109 575.962 155.634 677.635 148.454C788.625 140.613 853.54 226.957 986.376 201.033C1142.2 170.602 1254.51 -31.7467 1342.55 -16.5545" stroke="#F2994A" stroke-width="0.938817" stroke-miterlimit="10"/>
</svg>
