<svg width="96" height="97" viewBox="0 0 96 97" fill="none" xmlns="http://www.w3.org/2000/svg">
<g clip-path="url(#clip0_46_1467)">
<path d="M62 26.5C62 23.14 68 16.5 68 16.5C68 16.5 74 23.14 74 26.5C74 29.82 71.32 32.5 68 32.5C64.68 32.5 62 29.82 62 26.5ZM78 60.5C83.52 60.5 88 56.02 88 50.5C88 43.82 78 32.5 78 32.5C78 32.5 68 43.82 68 50.5C68 56.02 72.48 60.5 78 60.5ZM52 56.5H44V48.5H36V56.5H28V64.5H36V72.5H44V64.5H52V56.5ZM64 48.5V88.5H16V48.5C16 36.62 24.64 26.78 36 24.86V16.5H28V8.5H52C56.52 8.5 60.6 10.06 63.96 12.54L58.24 18.26C56.4 17.18 54.28 16.5 52 16.5H44V24.86C55.36 26.78 64 36.62 64 48.5Z" fill="black"/>
</g>
<defs>
<clipPath id="clip0_46_1467">
<rect width="96" height="96" fill="white" transform="translate(0 0.5)"/>
</clipPath>
</defs>
</svg>
