<svg width="105" height="133" viewBox="0 0 105 133" fill="none" xmlns="http://www.w3.org/2000/svg">
<path d="M30.436 125.725C30.436 129.344 33.7727 132.305 37.8509 132.305H67.5104C71.5886 132.305 74.9253 129.344 74.9253 125.725V119.145H30.436V125.725ZM52.6806 0.709778C24.0591 0.709778 0.776367 21.3702 0.776367 46.768C0.776367 62.4277 9.60009 76.1794 23.0211 84.5357V99.4059C23.0211 103.025 26.3578 105.986 30.436 105.986H74.9253C79.0035 105.986 82.3402 103.025 82.3402 99.4059V84.5357C95.7612 76.1794 104.585 62.4277 104.585 46.768C104.585 21.3702 81.3021 0.709778 52.6806 0.709778ZM67.5104 77.6927V92.8261H37.8509V77.6927C26.5802 70.6524 15.6062 63.4147 15.6062 46.768C15.6062 28.6079 32.2155 13.8693 52.6806 13.8693C73.1458 13.8693 89.7551 28.6079 89.7551 46.768C89.7551 63.1515 78.5586 70.784 67.5104 77.6927Z" fill="black"/>
</svg>
