<svg width="40" height="38" viewBox="0 0 40 38" fill="none" xmlns="http://www.w3.org/2000/svg">
<path d="M12 30C9.8 30 8.02 31.65 8.02 33.6667C8.02 35.6834 9.8 37.3334 12 37.3334C14.2 37.3334 16 35.6834 16 33.6667C16 31.65 14.2 30 12 30ZM0 0.666687V4.33335H4L11.2 18.2484L8.5 22.74C8.18 23.2534 8 23.8584 8 24.5C8 26.5167 9.8 28.1667 12 28.1667H36V24.5H12.84C12.56 24.5 12.34 24.2984 12.34 24.0417L12.4 23.8217L14.2 20.8334H29.1C30.6 20.8334 31.92 20.0817 32.6 18.945L39.76 7.04669C39.92 6.79002 40 6.47835 40 6.16669C40 5.15835 39.1 4.33335 38 4.33335H8.42L6.54 0.666687H0ZM32 30C29.8 30 28.02 31.65 28.02 33.6667C28.02 35.6834 29.8 37.3334 32 37.3334C34.2 37.3334 36 35.6834 36 33.6667C36 31.65 34.2 30 32 30Z" fill="black"/>
</svg>
