<svg width="39" height="36" viewBox="0 0 39 36" fill="none" xmlns="http://www.w3.org/2000/svg">
<path d="M25.5938 19.6875C25.5938 22.7942 22.8655 25.3125 19.5 25.3125C16.1345 25.3125 13.4062 22.7942 13.4062 19.6875C13.4062 16.5808 16.1345 14.0625 19.5 14.0625C22.8655 14.0625 25.5938 16.5808 25.5938 19.6875Z" fill="#DFDFD7"/>
<path d="M14.0156 11.8125C14.0156 14.2979 11.8331 16.3125 9.14062 16.3125C6.44813 16.3125 4.26562 14.2979 4.26562 11.8125C4.26562 9.32712 6.44813 7.3125 9.14062 7.3125C11.8331 7.3125 14.0156 9.32712 14.0156 11.8125Z" fill="#DFDFD7"/>
<path d="M34.7344 11.8125C34.7344 14.2979 32.5519 16.3125 29.8594 16.3125C27.1669 16.3125 24.9844 14.2979 24.9844 11.8125C24.9844 9.32712 27.1669 7.3125 29.8594 7.3125C32.5519 7.3125 34.7344 9.32712 34.7344 11.8125Z" fill="#DFDFD7"/>
<path fill-rule="evenodd" clip-rule="evenodd" d="M19.5 12.9375C19.5 12.9375 22.5289 12.9375 24.6707 14.9145C24.6707 14.9145 26.8125 16.8916 26.8125 19.6875C26.8125 19.6875 26.8125 22.4834 24.6707 24.4605C24.6707 24.4605 22.5289 26.4375 19.5 26.4375C19.5 26.4375 16.4711 26.4375 14.3293 24.4605C14.3293 24.4605 12.1875 22.4834 12.1875 19.6875C12.1875 19.6875 12.1875 16.8916 14.3293 14.9145C14.3293 14.9145 16.4711 12.9375 19.5 12.9375ZM19.5 15.1875C19.5 15.1875 17.4807 15.1875 16.0529 16.5055C16.0529 16.5055 14.625 17.8235 14.625 19.6875C14.625 19.6875 14.625 21.5515 16.0529 22.8695C16.0529 22.8695 17.4807 24.1875 19.5 24.1875C19.5 24.1875 21.5193 24.1875 22.9471 22.8695C22.9471 22.8695 24.375 21.5515 24.375 19.6875C24.375 19.6875 24.375 17.8235 22.9471 16.5055C22.9471 16.5055 21.5193 15.1875 19.5 15.1875Z" fill="#333333"/>
<path d="M36.1953 20.3605L36.1957 20.361C36.3892 20.6 36.6777 20.7582 36.9976 20.8009C37.0553 20.8086 37.1136 20.8125 37.172 20.8125L37.1741 20.8125C37.4364 20.8121 37.6915 20.7336 37.9016 20.5886C38.2094 20.3763 38.3907 20.0423 38.3907 19.6875L38.3906 19.6746C38.3877 19.4363 38.3028 19.2049 38.1482 19.014L38.1471 19.0127C36.6822 17.2041 34.4939 16.1941 34.4939 16.1941C32.3049 15.1837 29.8574 15.1875 29.8574 15.1875L29.8595 15.1875C30.5326 15.1875 31.0782 15.6912 31.0782 16.3125C31.0782 16.9329 30.5342 17.4361 29.8622 17.4375L36.1953 20.3605Z" fill="#333333"/>
<path d="M5.59624 18.2065C7.26871 17.4346 9.13859 17.4375 9.13859 17.4375L9.14029 17.4375H9.14062C9.15947 17.4375 9.17831 17.4371 9.19713 17.4363C9.49979 17.4233 9.78637 17.3068 10.001 17.1093C10.2299 16.8987 10.3588 16.6128 10.3594 16.3144L10.3594 16.3128V16.3125C10.3594 16.2445 10.3527 16.1766 10.3394 16.1097C10.2334 15.5762 9.73023 15.1884 9.14266 15.1875L9.14062 15.1875C6.69431 15.1842 4.50616 16.1941 4.50616 16.1941C2.31787 17.2041 0.852942 19.0127 0.852942 19.0127L0.852061 19.0138C0.694453 19.2085 0.609375 19.4447 0.609375 19.6875L0.609442 19.6993C0.610008 19.7492 0.614175 19.7991 0.621914 19.8485C0.668161 20.1438 0.839597 20.41 1.09851 20.5886C1.30917 20.734 1.56512 20.8125 1.82812 20.8125C1.84442 20.8125 1.86071 20.8122 1.87699 20.8116C2.24386 20.798 2.58454 20.6325 2.80435 20.361C3.92377 18.9784 5.59624 18.2065 5.59624 18.2065Z" fill="#333333"/>
<path d="M24.0269 27.6389C26.1036 28.8361 27.1784 30.8666 27.1784 30.8666L27.1791 30.8679L27.1794 30.8686C27.3838 31.255 27.8088 31.5 28.2746 31.5L28.308 31.4996C28.482 31.4952 28.653 31.4564 28.8094 31.3859C29.2279 31.1973 29.4934 30.8049 29.4934 30.375L29.4929 30.3442C29.4881 30.1836 29.4462 30.0258 29.3698 29.8814L29.3693 29.8805C27.9879 27.2697 25.3181 25.7305 25.3181 25.7305C22.6479 24.1911 19.4996 24.1911 19.4996 24.1911C16.3513 24.1911 13.6811 25.7305 13.6811 25.7305C11.0113 27.2697 9.62992 29.8805 9.62992 29.8805L9.6295 29.8813C9.54813 30.0351 9.50586 30.2039 9.50586 30.375L9.50596 30.3896C9.50765 30.5092 9.52997 30.6277 9.57208 30.7408C9.67718 31.0229 9.89939 31.255 10.1898 31.3859C10.3564 31.461 10.5393 31.5 10.7246 31.5L10.7526 31.4997C11.2082 31.49 11.6198 31.2466 11.8198 30.8686C12.8946 28.8367 14.9723 27.6389 14.9723 27.6389C17.05 26.4411 19.4996 26.4411 19.4996 26.4411C21.9492 26.4411 24.0269 27.6389 24.0269 27.6389Z" fill="#333333"/>
<path d="M11.7999 9.50157C12.5274 10.2163 12.7266 11.1797 12.7266 11.1797C12.7872 11.4728 12.9715 11.7316 13.2388 11.8993C13.4409 12.026 13.6795 12.0937 13.9237 12.0937L13.9316 12.0937C14.0057 12.0933 14.0795 12.0866 14.1523 12.0738C14.7269 11.9725 15.1425 11.5087 15.1425 10.9687L15.1425 10.9624C15.1421 10.8937 15.1348 10.8252 15.1209 10.7578C14.7889 9.15224 13.5764 7.96096 13.5764 7.96096C12.3639 6.76968 10.6486 6.36373 10.6486 6.36373C8.93334 5.95778 7.24949 6.46359 7.24949 6.46359C5.56564 6.96941 4.43769 8.22944 4.43769 8.22944C3.30973 9.48948 3.08899 11.1113 3.08899 11.1113C2.86825 12.7331 3.62347 14.2115 3.62347 14.2115C4.3787 15.69 5.87466 16.5646 5.87466 16.5646C7.3701 17.4388 9.14015 17.4375 9.14015 17.4375L9.14139 17.4375C9.46462 17.4372 9.77448 17.3184 10.0028 17.1072C10.2308 16.8963 10.3589 16.6105 10.3589 16.3125L10.3589 16.3113C10.3582 15.6905 9.81277 15.1875 9.14015 15.1875L9.13891 15.1875C8.07646 15.1885 7.17888 14.6637 7.17888 14.6637C6.2813 14.139 5.82817 13.2519 5.82817 13.2519C5.37503 12.3648 5.50748 11.3918 5.50748 11.3918C5.63992 10.4187 6.31669 9.66266 6.31669 9.66266C6.99347 8.90664 8.00377 8.60315 8.00377 8.60315C9.01409 8.29966 10.0433 8.54323 10.0433 8.54323C11.0724 8.7868 11.7999 9.50157 11.7999 9.50157Z" fill="#333333"/>
<path d="M31.821 14.6637C30.9235 15.1885 29.861 15.1875 29.861 15.1875L29.8598 15.1875C29.8407 15.1875 29.8215 15.1879 29.8025 15.1887L28.6424 16.3654C28.6566 16.6448 28.7831 16.9092 28.9971 17.1072C29.2254 17.3184 29.5353 17.4372 29.8585 17.4375L29.8598 17.4375C31.6298 17.4388 33.1253 16.5646 33.1253 16.5646C34.6212 15.69 35.3764 14.2115 35.3764 14.2115C36.1317 12.7331 35.9109 11.1113 35.9109 11.1113C35.6902 9.48948 34.5622 8.22944 34.5622 8.22944C33.4343 6.9694 31.7504 6.46359 31.7504 6.46359C30.0666 5.95778 28.3513 6.36373 28.3513 6.36373C26.636 6.76968 25.4235 7.96096 25.4235 7.96096C24.2111 9.15223 23.879 10.7578 23.879 10.7578C23.8647 10.8273 23.8574 10.898 23.8574 10.9687C23.8574 11.0025 23.8591 11.0363 23.8624 11.07C23.9113 11.5701 24.3134 11.9796 24.8477 12.0738C24.923 12.0871 24.9995 12.0937 25.0762 12.0937C25.1128 12.0937 25.1494 12.0922 25.1859 12.0892C25.7276 12.044 26.1713 11.6729 26.2733 11.1797C26.4725 10.2163 27.2 9.50157 27.2 9.50157C27.9275 8.7868 28.9567 8.54323 28.9567 8.54323C29.9858 8.29966 30.9961 8.60315 30.9961 8.60315C32.0064 8.90664 32.6832 9.66266 32.6832 9.66266C33.36 10.4187 33.4924 11.3918 33.4924 11.3918C33.6249 12.3648 33.1718 13.2519 33.1718 13.2519C32.7186 14.139 31.821 14.6637 31.821 14.6637Z" fill="#333333"/>
</svg>
