<svg width="159" height="136" viewBox="0 0 159 136" fill="none" xmlns="http://www.w3.org/2000/svg">
<g clip-path="url(#clip0_45_103)">
<path d="M74.8865 59.1396C74.0842 57.5298 74.3861 55.8444 75.5607 55.3753C76.7353 54.9062 78.3375 55.8309 79.1399 57.4414C79.4705 58.0806 79.6207 58.7833 79.578 59.4905L82.8787 66.3508L79.1561 67.708L76.2974 60.8009C75.6808 60.3568 75.197 59.7872 74.8865 59.1396Z" fill="#FFAFAF"/>
<path d="M97.6978 62.0525C99.7101 63.776 99.5841 66.7165 97.4304 68.2926L86.8833 76.011C85.7322 76.8534 84.0239 76.5557 83.2977 75.3863C80.526 71.3107 80.0035 71.0871 78.3926 66.9101L82.9355 65.4668L85.4969 68.3799L91.0893 62.3878C92.7794 60.5769 95.7961 60.4238 97.6978 62.0525Z" fill="#EF990F"/>
<path d="M56.9761 51.6308V48.5937H23.8415V51.6308H56.9761Z" fill="#DFDFDF"/>
<path d="M140.876 51.6308V48.5937H107.742V51.6308H140.876Z" fill="#DFDFDF"/>
<path d="M42.1971 38.104H36.5322C34.3352 38.104 32.5542 39.7216 32.5542 41.7171V60.7183C32.5542 62.7138 34.3352 64.3314 36.5322 64.3314H42.1971C44.3941 64.3314 46.1752 62.7138 46.1752 60.7183V41.7171C46.1752 39.7216 44.3941 38.104 42.1971 38.104Z" fill="#3F3D56"/>
<path d="M131.551 38.104H125.886C123.689 38.104 121.908 39.7216 121.908 41.7171V60.7183C121.908 62.7138 123.689 64.3314 125.886 64.3314H131.551C133.748 64.3314 135.529 62.7138 135.529 60.7183V41.7171C135.529 39.7216 133.748 38.104 131.551 38.104Z" fill="#3F3D56"/>
<path d="M127.96 57.8983H41.4452C38.4374 57.8983 35.8637 55.9473 35.3256 53.2597L32.0171 36.732C30.5783 29.5443 33.5596 22.2212 39.7991 17.6131L46.323 4.86448C47.8352 1.90935 51.1306 0 54.7184 0H103.452C106.043 0 108.532 0.995513 110.282 2.73138L122.269 14.6275C131.04 19.9953 136.015 29.279 135.256 38.8603L134.164 52.6544C133.931 55.5948 131.206 57.8983 127.96 57.8983Z" fill="#DFDFDF"/>
<path d="M113.195 16.454H47.832C46.6969 16.454 45.6494 15.9381 45.03 15.0743C44.4106 14.2102 44.3149 13.1313 44.774 12.1885L48.2193 5.11384C48.7436 4.03714 49.9197 3.32747 51.2153 3.30597L106.935 3.36758C107.996 3.3613 109.009 3.79503 109.653 4.55833L115.85 11.5714C116.629 12.4959 116.761 13.7183 116.193 14.7621C115.625 15.8057 114.477 16.454 113.195 16.454Z" fill="white"/>
<path d="M122.997 35.1349C126.157 35.1349 128.718 32.8085 128.718 29.9389C128.718 27.0692 126.157 24.7429 122.997 24.7429C119.838 24.7429 117.276 27.0692 117.276 29.9389C117.276 32.8085 119.838 35.1349 122.997 35.1349Z" fill="white"/>
<path d="M47.8097 35.1349C50.9692 35.1349 53.5305 32.8085 53.5305 29.9389C53.5305 27.0692 50.9692 24.7429 47.8097 24.7429C44.6502 24.7429 42.0889 27.0692 42.0889 29.9389C42.0889 32.8085 44.6502 35.1349 47.8097 35.1349Z" fill="white"/>
<path d="M117.413 49.362H55.0288V49.2383C55.0288 46.3049 57.6562 43.9185 60.8858 43.9185H111.556C114.785 43.9185 117.413 46.3049 117.413 49.2383V49.362Z" fill="#3F3D56"/>
<path d="M40.7159 18.7028C40.3783 18.7028 40.0401 18.6052 39.7561 18.408L37.472 16.822C37.2452 16.6644 36.963 16.5777 36.6773 16.5777H31.6892C31.1185 16.5777 30.6071 16.31 30.3212 15.8613C30.0352 15.4128 30.0342 14.8766 30.3183 14.4272L31.536 12.5004C31.7792 12.1155 32.2136 11.8507 32.698 11.792L38.9388 11.0362C39.7166 10.9424 40.4408 11.3694 40.6634 12.0517L42.2319 16.8597C42.4046 17.3891 42.2235 17.969 41.7704 18.3375C41.4719 18.5801 41.0944 18.7028 40.7159 18.7028Z" fill="#DFDFDF"/>
<path d="M121.646 17.7131C121.267 17.7131 120.89 17.5904 120.591 17.3478C120.138 16.9793 119.957 16.3994 120.13 15.87L121.698 11.062C121.921 10.3792 122.646 9.95077 123.423 10.0467L129.664 10.8023C130.148 10.861 130.582 11.1258 130.826 11.5107L132.043 13.4375C132.328 13.8869 132.326 14.4231 132.041 14.8716C131.755 15.3203 131.243 15.588 130.672 15.588H125.684C125.399 15.588 125.117 15.6747 124.89 15.8323L122.606 17.4183C122.322 17.6155 121.983 17.7131 121.646 17.7131Z" fill="#DFDFDF"/>
<path d="M27.1852 9.38742H23.8413V133.909H27.1852V9.38742Z" fill="#DFDFDF"/>
<path d="M142.7 9.38742H139.356V133.909H142.7V9.38742Z" fill="#DFDFDF"/>
<path d="M0 134.03C0 134.125 0.0836907 134.201 0.18791 134.201H158.812C158.916 134.201 159 134.125 159 134.03C159 133.935 158.916 133.859 158.812 133.859H0.18791C0.0836907 133.859 0 133.935 0 134.03Z" fill="#3F3D56"/>
<path d="M104.736 124.611V130.251L109.431 130.388L109.235 124.611H104.736Z" fill="#FFAFAF"/>
<path d="M103.806 127.749C103.743 127.749 103.681 127.756 103.621 127.772C102.773 127.992 97.8682 131.969 96.3851 133.183C96.2018 133.333 96.1045 133.547 96.1179 133.771C96.1312 133.993 96.2531 134.195 96.4521 134.325C97.5769 135.061 99.8812 136.225 102.677 135.755C103.963 135.538 105.261 135.402 106.406 135.282C108.858 135.025 110.794 134.822 110.794 134.034C110.794 132.697 110.389 129.172 109.881 129.024C109.835 129.011 109.781 129.043 109.72 129.122C108.942 130.11 106.271 129.584 106.158 129.561L106.128 129.555L106.112 129.532C106.098 129.513 104.79 127.749 103.806 127.749Z" fill="#2F2E41"/>
<path d="M95.9512 124.611V130.251L100.646 130.388L100.451 124.611H95.9512Z" fill="#FFAFAF"/>
<path d="M94.058 84.235L91.5589 85.9546L91.1045 105.351L95.3454 126.537L100.874 126.743L101.025 106.521L108.144 88.0868L106.705 83.7535L94.058 84.235Z" fill="#2F2E41"/>
<path d="M105.72 87.5366L108.144 88.0868L109.885 126.537L103.6 126.055L99.4346 98.8858L105.72 87.5366Z" fill="#2F2E41"/>
<path d="M92.5987 136C90.4441 136 88.6934 135.135 87.7585 134.552C87.476 134.376 87.3012 134.096 87.2788 133.784C87.2562 133.47 87.3911 133.169 87.6489 132.958C89.9695 131.062 93.9838 127.85 94.7942 127.64C95.8445 127.366 97.2541 129.191 97.4354 129.433C97.7289 129.487 100.133 129.905 100.812 129.042C100.941 128.877 101.063 128.87 101.142 128.893C101.867 129.104 102.161 133.343 102.161 134.034C102.161 134.945 100.264 135.144 97.6391 135.419C96.4963 135.539 95.2011 135.674 93.92 135.89C93.4659 135.966 93.0244 136 92.5987 136Z" fill="#2F2E41"/>
<path d="M99.2507 59.1115L100.976 62.2682L94.4556 65.1283L94.5355 60.0678L99.2507 59.1115Z" fill="#FFAFAF"/>
<path d="M94.4788 61.4994C97.7191 61.4994 100.346 59.1136 100.346 56.1706C100.346 53.2276 97.7191 50.8418 94.4788 50.8418C91.2386 50.8418 88.6118 53.2276 88.6118 56.1706C88.6118 59.1136 91.2386 61.4994 94.4788 61.4994Z" fill="#FFAFAF"/>
<path d="M94.4392 63.8977L100.455 60.669C104.867 63.4794 108.542 64.1369 108.658 69.0305L107.845 80.7034L107.893 85.7307C107.913 87.8411 106.035 89.5616 103.711 89.5616H95.1209C92.8476 89.5616 91.1539 87.6567 91.6325 85.6382L93.2543 78.7993L91.5225 65.4706L94.4392 63.8977Z" fill="#EF990F"/>
<path d="M100.512 58.8518L99.4276 59.5576C99.4276 59.5576 99.1084 56.4814 98.668 56.3448C98.2275 56.2083 97.6333 56.9173 97.6333 56.9173L97.1994 58.0722L95.7645 57.529C95.7645 57.529 94.103 56.7162 93.5158 56.5342C92.9286 56.3522 93.0176 54.8067 93.0176 54.8067C93.0176 54.8067 85.9682 55.6834 87.0274 51.9923C87.0274 51.9923 87.3921 49.2768 88.1727 49.8165C88.9533 50.3563 88.9638 49.0197 88.9638 49.0197L90.7325 48.6747C90.7325 48.6747 93.1594 45.7054 97.9468 48.2314C102.734 50.7574 100.512 58.8518 100.512 58.8518Z" fill="#2F2E41"/>
<path d="M88.2683 70.6471L86.6833 70.4278C86.2408 70.3665 85.9338 69.9875 86.0012 69.5856L86.1949 68.4308C85.6197 68.7537 85.1975 69.2941 85.0877 69.9488C84.9182 70.959 85.5466 71.9104 86.5439 72.2809L85.1571 80.5487C85.1536 80.5695 85.1543 80.5898 85.1537 80.6103C84.0772 80.6915 83.1617 81.4309 82.9919 82.4433C82.8924 83.0367 83.0679 83.6105 83.4316 84.0581L83.606 83.018C83.6735 82.616 84.0908 82.3372 84.5333 82.3984L86.1182 82.6178C86.5608 82.679 86.8678 83.058 86.8003 83.46L86.6066 84.6147C87.1819 84.2919 87.6041 83.7514 87.7139 83.0967C87.8837 82.0843 87.2522 81.1309 86.2512 80.7621C86.2573 80.7424 86.2646 80.7232 86.2681 80.7025L87.6549 72.4346C88.7284 72.3507 89.6402 71.6124 89.8096 70.6022C89.9092 70.0088 89.7337 69.435 89.37 68.9874L89.1955 70.0276C89.1281 70.4295 88.7108 70.7083 88.2683 70.6471Z" fill="#3F3D56"/>
<path d="M85.316 77.8409C83.4141 77.4689 82.1021 76.2459 82.3857 75.1092C82.6693 73.9726 84.4408 73.353 86.3434 73.7253C87.1058 73.8643 87.8171 74.1726 88.4175 74.6245L96.4524 76.296L95.4389 79.8212L87.6255 77.7991C86.8658 77.9851 86.0738 77.9994 85.316 77.8409Z" fill="#FFAFAF"/>
<path d="M101.464 62.9202C104.187 62.4764 106.714 64.3177 106.828 66.8277L107.384 79.1194C107.444 80.4609 106.165 81.531 104.698 81.3655C99.442 80.9644 99.8112 81.4533 95.1562 80.1444L95.468 75.6515L99.8055 75.5918L97.8296 67.9443C97.2324 65.6331 98.8916 63.3397 101.464 62.9202Z" fill="#EF990F"/>
</g>
<defs>
<clipPath id="clip0_45_103">
<rect width="159" height="136" fill="white"/>
</clipPath>
</defs>
</svg>
